# xmcd
#
# Track frame offsets:
#	150
#	16802
#	34757
#	51064
#	65557
#	84687
#	100232
#	114740
#	132395
#	149887
#	167416
#
# Disc length: 2490 seconds
#
# Revision: 0
# Processed by: cddbd v1.4PL0 Copyright (c) Steve Scherf et al.
# Submitted via: dBpowerAMP V4.0
#
DISCID=9a09b80b
DTITLE=Michelle Branch - The Spirit Room
DYEAR=1900
DGENRE=Country
TTITLE0=Everywhere
TTITLE1=You Got Me
TTITLE2=All You Wanted
TTITLE3=You Set Me Free
TTITLE4=Something To Sleep To
TTITLE5=Here With Me
TTITLE6=Sweet Misery
TTITLE7=If Only She Knew
TTITLE8=I'd Rather Be In Love
TTITLE9=Goodbye To You
TTITLE10=Drop In The Ocean
EXTD=\n\n\n\n                                         Les
EXTT0=
EXTT1=
EXTT2=
EXTT3=
EXTT4=
EXTT5=
EXTT6=
EXTT7=
EXTT8=
EXTT9=
EXTT10=
PLAYORDER=
